<svg width="48" height="32" viewBox="0 0 48 32" fill="none" xmlns="http://www.w3.org/2000/svg">
<path d="M47.0659 0H0.934102C0.418211 0 0 0.418211 0 0.934102V31.0659C0 31.5818 0.418211 32 0.934102 32H47.0659C47.5818 32 48 31.5818 48 31.0659V0.934102C48 0.418211 47.5818 0 47.0659 0Z" fill="#003399"/>
<path d="M24 3.55542L24.3992 4.78378L25.6908 4.78383L24.6459 5.54305L25.045 6.77145L24 6.01231L22.9551 6.77145L23.3542 5.54305L22.3093 4.78383L23.6009 4.78378L24 3.55542Z" fill="#FFCC00"/>
<path d="M24 24.8887L24.3992 26.117L25.6908 26.1171L24.6459 26.8763L25.045 28.1047L24 27.3456L22.9551 28.1047L23.3542 26.8763L22.3093 26.1171L23.6009 26.117L24 24.8887Z" fill="#FFCC00"/>
<path d="M34.6667 14.2222L35.0658 15.4505L36.3574 15.4506L35.3125 16.2098L35.7116 17.4382L34.6667 16.6791L33.6217 17.4382L34.0208 16.2098L32.9759 15.4506L34.2675 15.4505L34.6667 14.2222Z" fill="#FFCC00"/>
<path d="M13.3333 14.2222L13.7325 15.4505L15.0241 15.4506L13.9792 16.2098L14.3783 17.4382L13.3333 16.6791L12.2884 17.4382L12.6875 16.2098L11.6426 15.4506L12.9342 15.4505L13.3333 14.2222Z" fill="#FFCC00"/>
<path d="M18.6667 23.4668L19.0659 24.6952L20.3575 24.6952L19.3126 25.4544L19.7117 26.6828L18.6667 25.9237L17.6218 26.6828L18.0208 25.4544L16.976 24.6952L18.2675 24.6952L18.6667 23.4668Z" fill="#FFCC00"/>
<path d="M29.3333 4.97778L29.7325 6.20615L31.0241 6.2062L29.9792 6.96542L30.3783 8.19381L29.3333 7.43467L28.2884 8.19381L28.6875 6.96542L27.6426 6.2062L28.9342 6.20615L29.3333 4.97778Z" fill="#FFCC00"/>
<path d="M29.3333 23.4668L29.7325 24.6952L31.0241 24.6952L29.9792 25.4544L30.3783 26.6828L29.3333 25.9237L28.2884 26.6828L28.6875 25.4544L27.6426 24.6952L28.9342 24.6952L29.3333 23.4668Z" fill="#FFCC00"/>
<path d="M33.2444 19.5557L33.6436 20.784L34.9352 20.7841L33.8903 21.5433L34.2894 22.7717L33.2444 22.0126L32.1995 22.7717L32.5985 21.5433L31.5536 20.7841L32.8452 20.784L33.2444 19.5557Z" fill="#FFCC00"/>
<path d="M18.6667 4.97778L19.0659 6.20615L20.3575 6.2062L19.3126 6.96542L19.7117 8.19381L18.6667 7.43467L17.6218 8.19381L18.0208 6.96542L16.976 6.2062L18.2675 6.20615L18.6667 4.97778Z" fill="#FFCC00"/>
<path d="M33.2444 8.88892L33.6436 10.1173L34.9352 10.1173L33.8903 10.8766L34.2894 12.1049L33.2444 11.3458L32.1995 12.1049L32.5985 10.8766L31.5536 10.1173L32.8452 10.1173L33.2444 8.88892Z" fill="#FFCC00"/>
<path d="M14.7556 19.5557L15.1548 20.784L16.4464 20.7841L15.4015 21.5433L15.8005 22.7717L14.7556 22.0126L13.7106 22.7717L14.1097 21.5433L13.0648 20.7841L14.3564 20.784L14.7556 19.5557Z" fill="#FFCC00"/>
<path d="M14.7556 8.88892L15.1548 10.1173L16.4464 10.1173L15.4015 10.8766L15.8005 12.1049L14.7556 11.3458L13.7106 12.1049L14.1097 10.8766L13.0648 10.1173L14.3564 10.1173L14.7556 8.88892Z" fill="#FFCC00"/>
</svg>
