<svg width="32" height="40" viewBox="0 0 32 40" fill="none" xmlns="http://www.w3.org/2000/svg">
<g clip-path="url(#clip0)">
<path d="M31.3447 3.76675C28.4182 2.31466 25.3382 1.41732 22.0381 0.86728C19.9585 0.468258 17.8657 0.296792 15.7891 0.31448C13.7127 0.296703 11.6199 0.468258 9.54025 0.86728C6.24016 1.41732 3.16007 2.31466 0.233582 3.76675L0.236959 3.77519C0.235893 3.77572 0.234826 3.77617 0.23367 3.77661V16.4842C0.37927 17.901 0.645582 24.7817 5.04834 31.0335C6.47012 33.0525 8.65456 35.5928 10.9142 37.2361C13.2829 38.9587 15.5783 39.7376 15.7889 39.7575C15.7889 39.7575 15.7892 39.7575 15.7893 39.7575C16 39.7375 18.2952 38.9587 20.664 37.2361C22.9237 35.5928 25.108 33.0525 26.5298 31.0335C30.9325 24.7817 31.1988 17.901 31.3443 16.4842V3.77661C31.3428 3.77599 31.3413 3.77528 31.3397 3.77466L31.3447 3.76675Z" fill="#017DC3"/>
<path d="M29.7592 6.98506C29.2635 6.29546 28.5949 5.58391 27.6248 5.64853C26.9783 5.75626 26.245 6.18809 25.7924 6.72693C23.4211 9.68 23.4936 14.5375 24.8733 18.0295C24.5928 18.3529 24.1619 18.1157 23.8599 18.0295C22.8253 17.5338 22.3075 16.5638 22.0701 15.5722C21.6608 16.6499 22.1281 17.8282 22.6022 18.6905C23.3842 20.0636 24.8453 20.1308 25.7116 20.733C25.8192 20.9268 25.9599 21.3576 25.6136 21.3497C25.312 20.9684 25.0433 20.6738 24.4612 20.7816C24.2025 20.8836 23.9439 21.0723 23.8578 21.3745C23.6853 21.8273 23.8578 22.2795 24.0951 22.6031L24.4182 22.0646C24.7201 21.8272 25.0868 21.6548 25.4961 21.8272C25.8192 21.9565 25.9381 22.3498 25.8731 22.7591C25.7438 23.3412 25.1893 23.762 24.7255 23.9884C23.6577 24.3014 22.9756 23.974 22.5013 23.3918C21.1744 20.7727 19.038 19.997 20.1513 16.8728C19.6341 16.377 19.3942 15.7553 19.1787 15.0441C18.9846 15.4536 18.8977 16.0496 18.9069 16.5283C18.5597 16.518 18.4221 16.4061 18.293 16.3496C17.4091 15.8323 17.178 14.9833 17.1135 14.0348C15.99 15.8533 13.7337 14.8163 12.881 14.8154C13.2132 14.3154 13.961 13.4681 14.0582 13.1942C13.196 13.6039 12.2733 13.9313 11.174 13.8236C10.0317 15.5053 7.75121 14.8823 6.4145 16.1758C5.85406 15.6369 5.29343 15.0333 4.60695 14.7796C3.91726 14.5855 3.25566 14.9719 2.88908 15.4676L3.54908 15.325C3.95877 15.562 3.47432 15.8438 3.68997 16.1026C4.14268 16.5122 5.01335 15.7908 5.01335 16.5669C4.41317 17.1341 3.8249 16.1483 2.86588 16.7744C2.58739 17.0959 2.40988 17.6084 2.5609 18.0609L3.22259 17.5469C4.10686 18.8347 4.5985 17.3692 5.55557 17.2949C5.93361 17.1656 5.98997 17.4377 5.92357 17.6549C5.55521 17.9169 4.65335 17.9781 4.32357 18.5321C4.10321 18.9598 4.58232 19.686 4.97032 20.0096C4.9273 19.6646 5.01352 19.406 5.29361 19.2119C5.46588 19.159 5.79761 19.162 6.03459 19.2485C6.79912 19.242 6.29477 18.3644 6.82419 18.1722C7.62837 18.489 7.51832 16.8342 8.37077 17.1029C8.73228 17.6565 7.4257 18.1095 7.49184 19.1856C7.50864 19.3477 8.0249 19.0852 8.23423 19.0453C8.47175 19.0004 8.64819 18.9516 8.6921 18.856C9.08935 18.248 9.27139 17.2201 9.90144 16.7364C9.99432 16.7515 10.0517 16.802 10.0738 16.8873C9.90143 17.5556 9.27281 18.0861 9.27281 18.7762C9.59619 18.733 9.89779 18.6468 10.1781 18.4958C10.2991 17.7611 10.8037 16.9005 11.3454 16.3052C11.4554 16.2823 11.6065 16.3123 11.6522 16.4197C11.54 16.7836 10.6531 17.4956 10.6357 18.4177C11.0292 18.2695 11.4287 18.2509 11.6228 18.0512C12.1823 17.4753 11.9483 16.4642 12.7306 16.006C12.9353 15.8518 13.0349 16.0122 13.0794 16.0958C13.0982 16.7023 12.1892 17.0532 12.1273 17.95C12.3859 17.8638 12.9683 18.0356 13.2699 17.8202C13.5934 17.109 13.6902 16.2474 14.3369 15.6652C15.1406 15.8095 13.9384 16.4682 14.0465 17.0289L15.2013 16.8008C15.3086 16.3014 15.2106 15.7135 15.7434 15.5137L15.9899 15.6026C16.1621 16.0984 15.7957 16.4648 15.6233 16.8961C15.2783 17.3486 14.6108 17.1868 14.1797 17.4452C14.5893 18.3775 15.7068 19.8676 16.7763 20.4994C18.5653 22.5688 16.0517 24.5252 16.113 26.3215C16.0973 26.9869 16.8657 26.941 17.2023 26.9865C17.2988 26.9996 17.3139 27.1268 17.29 27.2311C17.2012 27.3358 17.016 27.327 16.7989 27.303C16.5819 27.2789 16.3331 27.2395 16.1174 27.2824C16.0101 27.3252 15.788 27.43 15.8096 27.5809C15.8453 27.7396 16.1701 27.8645 16.3395 28.0537C16.9333 28.2864 17.7067 27.4729 18.0729 28.0117C18.1593 28.1625 18.0194 28.1792 17.955 28.2436C17.6197 28.286 16.8679 28.2054 16.6029 28.4961C16.7706 28.6833 17.0371 28.9686 17.2436 28.9691C17.5569 28.9695 17.9173 28.7447 18.2456 28.7447C18.9202 29.3583 17.6635 28.9819 17.5126 29.3483L17.9868 29.9732C18.1807 30.1024 18.4179 29.9948 18.5691 29.8868C18.9903 29.6829 19.2157 29.8977 19.4975 30.0505C19.7132 30.3089 19.6236 30.6436 19.5587 30.9022C19.1648 31.3239 18.2853 32.0327 17.9717 32.3584C17.4057 32.9308 17.4353 33.3899 16.3164 33.7211C15.5327 34.1988 15.2982 33.2814 14.6086 33.3241C14.3498 33.3588 13.9187 33.4319 13.854 33.7984C13.8325 34.1215 13.7128 34.5039 13.9306 34.8863L14.1878 34.6188C14.7051 34.2737 15.3089 34.576 15.7829 34.7916C15.826 34.8992 15.8758 34.8359 15.8327 34.9218C15.4918 35.1191 15.2835 34.9458 15.1237 34.8854C14.8218 34.8854 14.5416 34.8854 14.369 35.1012C14.0672 35.4244 13.8949 35.8774 14.0241 36.3513C14.5053 35.6981 15.3685 36.3874 15.6603 36.0427C16.005 35.9565 16.1522 35.4001 16.5404 35.6802C16.6911 36.0681 16.3251 36.1529 16.1525 36.4117C16.0025 36.5774 15.9933 36.9333 16.2818 37.0798C16.4327 37.2091 16.4327 37.5326 16.2818 37.6404C16.6911 37.5326 17.1439 37.4462 17.4461 37.1447C17.8125 36.9076 17.674 36.442 17.6308 36.054C17.7174 35.8169 17.8957 35.7291 18.2039 35.7626C18.65 35.7889 18.0047 34.691 18.5272 34.512C19.1868 34.6086 18.5625 35.6959 18.9719 36.0624C19.24 35.8481 19.4322 35.7596 19.4949 35.5636C19.6834 34.9748 19.0561 33.8229 19.5962 33.6063C20.2248 33.4538 19.5309 34.6526 20.0267 35.1054C20.3204 34.9179 20.5027 34.7876 20.6207 34.7556C21.0248 34.2252 20.3323 33.5006 20.7274 32.7278C20.7703 32.6414 20.8784 32.4692 21.0293 32.5336C21.4172 33.0727 20.7274 33.6268 21.1586 34.1012C21.3911 33.7128 21.8442 33.5537 21.9015 33.2171C21.8592 32.9448 21.2126 31.8876 21.6481 31.3422C22.0611 31.2497 22.0155 32.1058 22.0795 32.5692C22.1028 32.7371 22.2268 32.8739 22.2812 33.022C22.4669 32.6156 22.7555 32.5258 22.8238 32.2931C22.9408 31.8928 22.7815 31.5387 22.6321 31.1735C22.4398 30.704 22.0797 30.0182 22.5012 29.7594C23.0184 29.9318 22.7908 30.686 23.0263 30.8464C23.3788 30.7399 23.5729 30.2998 23.8241 30.0059C24.1454 29.3757 23.2773 29.5173 23.054 29.1756C22.709 28.2917 21.7992 27.5393 21.0665 27.0003C21.1956 25.7286 21.2782 24.3958 20.9333 23.1892C20.9118 22.995 20.5558 22.9684 20.6422 22.7312C20.5993 22.5804 20.6747 22.37 20.8689 22.4564C21.3861 22.8443 21.4291 23.5339 21.4723 24.1589C21.8387 24.6117 22.3647 24.9633 22.8607 25.2004C24.0248 25.4805 25.3286 25.406 26.2781 24.3382C27.0812 23.4168 27.2639 22.0316 26.9838 20.7599C26.4233 17.699 24.8657 15.055 25.1888 11.6275C25.5123 10.3127 25.8357 8.75262 26.7197 7.67493C27.0862 7.26533 27.5528 7.07191 28.1133 7.15822C28.3936 7.26595 28.7461 7.56711 28.7891 7.89057C29.1555 9.29164 28.553 11.1482 27.4893 11.5985C26.9719 11.7277 26.4978 11.4045 26.1528 11.1028C26.1314 11.814 26.1524 12.4682 26.6481 12.9209C27.2053 13.5435 27.8388 12.8365 28.071 13.0717C27.8983 13.6322 27.2086 13.5373 26.9283 14.0331C25.8289 16.0811 28.2508 16.9462 29.099 18.5396C29.4436 18.8628 29.7631 19.8287 30.0607 19.631C30.2874 19.5593 29.6877 18.5254 29.4935 17.9866C28.1024 14.246 31.4473 10.8503 29.7592 6.98506ZM14.8503 5.07493C16.1179 5.38142 17.7085 5.08933 17.9862 6.66382C17.8506 6.52826 17.5608 6.00417 16.5521 5.89244C16.0145 5.83288 14.3665 5.89813 14.0123 5.73875C13.6362 5.52462 13.4052 4.93137 13.4325 4.40266C13.4757 4.18355 13.6157 3.83253 13.9632 3.7632C14.2446 4.29395 14.1791 4.84328 14.8503 5.07493ZM23.7218 4.83751C23.3798 4.69857 23.471 5.11529 23.3115 5.25422C23.1975 5.20791 23.0834 5.27733 23.0375 5.16151C23.2654 4.76808 23.3797 4.30506 23.3797 3.79564C23.1975 3.35555 22.4837 3.01208 21.9136 3.05857C21.5261 3.01235 21.7217 3.568 21.4253 3.54497C21.2428 3.42924 21.2309 3.26417 21.2084 3.14844C20.7065 2.61582 20.1419 2.25226 19.3213 2.27493C18.8653 2.29804 19.0504 2.75831 18.9619 2.98977C18.0269 2.54986 16.9564 2.50648 15.9303 2.50648C15.9075 2.87706 16.2052 3.13066 16.3652 3.40844C16.2967 3.52426 16.1131 3.42871 15.9761 3.42871C16.0217 3.96124 16.0901 4.47048 16.3866 4.86408C16.7285 4.97991 16.6411 4.54 16.9148 4.47048C17.3709 4.216 18.2438 4.24026 18.4814 4.44648C18.6881 4.83608 18.7149 5.17546 18.2655 5.56888C17.9464 6.05528 18.4926 6.78488 18.1115 7.07546C17.9046 7.15226 17.5949 6.91484 17.2887 6.94355C16.6557 7.00302 16.2143 6.98248 16.0938 6.34026C15.5923 6.45608 15.5104 7.10426 15.3789 7.57137C15.5915 7.81484 16.098 7.54204 16.2989 7.65991C17.2112 8.37769 18.1795 8.10186 19.1831 7.82408C19.9127 7.63893 20.2525 6.96649 20.9363 6.6424C21.2646 6.54586 21.1189 6.9232 21.0958 7.06213C19.1781 9.02515 16.2052 8.33066 13.7654 9.30311C12.169 10.206 11.9718 12.006 11.3105 13.5573C12.3823 13.6037 13.43 13.4204 14.2962 12.7258C15.4137 11.5681 16.4546 10.6189 17.7998 9.87804C18.0508 9.87804 18.3244 9.62328 18.5295 9.87804C18.4839 9.97057 18.4839 10.0402 18.4156 10.1094C16.283 10.6697 14.7837 12.4135 13.454 14.4756L14.1922 14.7264C17.1869 15.515 17.3626 12.1925 19.1184 11.22C19.2549 11.2662 19.4376 11.4051 19.3692 11.5672C18.2977 12.0998 17.5963 12.9688 17.4365 14.1264C17.3451 14.9831 17.9154 15.7935 18.5536 16.1407C18.6447 15.1916 19.215 14.4275 19.7623 13.6634C19.8763 13.5708 20.0479 13.4564 20.1847 13.7113L19.6258 14.4275C19.1943 15.068 20.0093 16.5787 20.9213 17.1112C20.8983 15.8608 21.3439 15.4687 21.6861 14.3342C22.0054 13.4083 21.6808 12.3732 21.321 11.5108C21.3436 11.3719 21.4347 11.1404 21.6627 11.2331C22.0009 12.0493 22.1741 12.9536 22.9267 13.3473C22.6388 11.7459 23.4882 10.9967 23.124 9.67751C23.0329 9.2608 22.5309 8.35849 22.9441 8.28142C23.3502 8.24373 23.3318 9.50853 24.0159 9.50853C23.7432 7.84337 24.8935 6.0488 23.7218 4.83751ZM19.6328 4.33066C19.5902 4.36888 19.4628 4.33493 19.4027 4.37173C19.2422 4.06 19.4307 3.75724 19.5697 3.5256C19.6238 3.52017 19.7389 3.49351 19.784 3.57911C20.0602 4.09866 20.517 3.9736 20.6807 4.41804C20.0932 4.63004 20.1633 3.85351 19.6328 4.33066ZM22.7757 4.33964C22.5674 4.24693 22.6137 3.89973 22.3125 4.01555C22.035 4.03893 22.3125 4.45546 21.9653 4.38586C21.8034 4.13137 21.9653 3.76088 22.1968 3.64506C22.5211 3.52951 22.6834 3.80728 22.8916 4.01555C22.8916 4.13137 22.9148 4.24729 22.7757 4.33964ZM12.8257 9.55671C12.3057 10.182 11.9167 10.8188 11.6263 11.5825C10.6773 10.5868 10.5104 9.24631 10.58 7.90346C11.2976 8.58373 12.1082 9.01395 12.8257 9.55671ZM15.6819 20.8788C15.5111 21.9822 16.1278 21.2298 16.7652 22.3528L16.8757 22.5741L16.0626 24.8067C15.1783 24.7181 14.3336 23.8432 13.3925 24.0641C13.1804 24.6215 13.7595 24.2668 13.9583 24.4884C13.9803 24.9416 13.9201 25.4212 13.6373 25.7793C13.3389 26.1572 13.5757 26.6941 13.8293 27.167C13.9177 27.4546 13.7367 27.6975 13.4892 27.8438C13.3621 27.9221 13.3348 27.8651 13.2317 27.9506C13.2356 27.7496 13.2547 27.5407 13.2086 27.4212C13.1784 27.3417 13.0753 27.3347 12.918 27.4725C12.7853 27.8929 12.9794 28.344 12.3659 28.6574L11.4791 28.8437C11.7875 28.1345 12.2328 27.9377 12.3212 27.5172C12.277 27.3849 12.0781 27.3849 11.9896 27.4511C11.5292 27.7684 11.1439 28.4308 10.8885 28.8312C10.6277 28.9002 10.1653 28.8203 9.87539 28.8032C10.067 28.542 10.1934 28.3259 10.3388 28.1791C10.6762 27.8379 10.8638 27.6216 10.9859 27.4116C10.8527 27.2211 10.7158 27.2956 10.6099 27.3673C10.1317 27.5698 9.89886 28.3466 9.41077 28.7301C9.18783 28.9048 8.84606 28.6041 8.42455 28.7282C9.18757 27.7127 9.60108 27.7228 9.68143 27.2566C9.50499 26.9577 9.19895 27.2325 9.04517 27.3489C8.48855 27.7039 8.27379 28.8027 7.72215 28.5929C7.61504 28.5522 7.40179 28.7904 7.37717 28.6004C7.43032 27.9083 8.19868 27.75 8.08143 27.4023C7.99299 27.2695 7.88703 27.2332 7.75441 27.287C7.01219 27.5456 6.95112 28.9374 5.90117 28.6179C5.61379 28.596 5.50286 28.7095 5.34801 28.9085C5.0385 28.6434 5.09637 28.0284 5.19379 27.7868C5.32783 27.2916 6.50615 27.7616 6.79335 27.0984C6.79335 26.7885 6.46206 26.7501 6.32108 26.8588C5.98935 27.0357 5.81246 27.434 5.34837 27.1907C5.19095 27.0923 4.94526 26.6586 4.60055 26.8855L4.33619 27.2033C4.18152 26.8934 4.48766 26.4204 4.70863 26.1995C5.27735 25.8217 5.23815 25.9172 5.48028 25.9225C5.86997 25.851 5.8993 26.3385 6.48917 26.2876C6.58686 26.2788 6.67166 26.2403 6.72757 26.1215C6.57317 25.3296 5.07255 26.0034 5.22908 25.158C5.1857 24.9664 4.99077 24.9501 4.8089 24.9813C4.72046 25.0918 4.60997 25.158 4.45512 25.158C4.41095 24.6494 4.94152 24.5609 5.18455 24.274C5.71521 24.1636 6.33415 24.1853 6.70979 24.6498C7.26597 25.4123 8.04739 25.5734 8.93895 25.6049C9.28757 25.6174 9.65468 25.5893 10.0337 25.5332C10.3653 25.6781 10.6262 26.2861 10.9979 25.9935C11.0226 25.9738 11.0036 25.9146 11.0297 25.887C11.0719 25.4073 10.0085 25.1944 9.96526 25.0677C9.9601 24.9441 9.90935 24.6732 9.94668 24.4054C10.735 24.4904 11.1096 25.5772 11.234 24.906C10.9958 24.4781 10.4829 24.2152 10.0049 24.0368C9.96872 23.8246 9.99975 23.5501 9.99975 23.3292C10.3917 23.2732 10.7071 23.8719 11.1417 23.8877C11.4186 23.8978 11.4449 23.8031 11.3166 23.5764C11.0741 23.1491 10.3868 23.2019 10.0447 22.8602C10.0341 22.502 9.93512 21.6814 10.155 21.5337C10.796 21.666 10.8908 22.6791 11.4806 22.648C11.5691 22.0733 10.7069 21.83 11.1049 21.2111C12.2545 19.6856 14.0101 20.9669 15.5927 20.2161L15.6819 20.8788ZM16.7315 21.0471C16.8077 21.2424 16.9413 21.4228 16.9942 21.6652L16.9693 22.0475C16.8535 21.978 16.7568 21.8036 16.6412 21.6648C16.4483 21.254 16.0556 21.3789 15.9989 21.1301C15.9775 21.0364 16.0025 20.801 15.9968 20.5788L15.9679 20.4028C16.4588 20.5586 16.5714 20.8966 16.7315 21.0471Z" fill="#EEE9E7"/>
<path d="M7.28668 4.07537C7.86552 4.02897 8.47326 4.28355 9.07512 4.46906C9.53814 4.56177 9.97806 4.60213 10.3024 4.53262C10.3077 4.74515 11.0389 5.31697 11.6047 6.14719C11.211 5.96204 10.7885 6.08959 10.5106 6.66826C10.4179 6.96933 10.331 7.31066 10.2617 7.70435C10.1228 8.79244 10.3717 9.97919 10.6726 10.6968C10.9737 11.4144 11.1938 11.6752 11.5642 11.9993C11.5354 12.392 11.4219 12.6248 11.3212 12.931C10.9045 13.7819 10.4185 14.3083 9.58437 14.6965C8.5657 15.0669 7.43139 14.9744 6.45894 15.9007C5.30126 14.7199 5.0753 14.3667 3.6745 14.523C3.15299 14.7946 2.37263 14.6045 1.52712 12.7575C1.50374 12.5723 1.27263 12.0231 1.24952 11.8379C1.93717 11.3165 2.7209 10.2746 2.42463 7.79724C2.37832 7.12586 2.17574 6.57022 1.9209 6.24613C1.66623 5.94524 1.34206 5.87564 1.06428 5.99146C1.20908 5.45333 1.70054 5.45315 2.05361 5.27359C2.28499 5.06506 2.4241 4.85662 2.60917 4.50942C3.14179 4.60204 3.65103 4.55555 4.16054 4.34737C4.85521 4.09271 5.74054 3.84364 6.48152 4.44568C6.71343 4.26053 7.00881 4.12186 7.28668 4.07537ZM1.33032 6.22053C1.49734 6.22053 1.63379 6.35288 1.63379 6.51519C1.63379 6.67733 1.49752 6.80986 1.33032 6.80986C1.16312 6.80986 1.02686 6.67759 1.02686 6.51519C1.02694 6.35271 1.16312 6.22053 1.33032 6.22053ZM11.3833 6.34204C11.5503 6.34204 11.6868 6.47439 11.6868 6.6367C11.6868 6.79893 11.5506 6.93137 11.3833 6.93137C11.216 6.93137 11.0798 6.7991 11.0798 6.6367C11.0798 6.47413 11.2161 6.34204 11.3833 6.34204Z" fill="#FCD100"/>
<path d="M6.29346 5.68677C6.28271 5.53015 6.24679 5.39291 6.49577 5.26144C6.64244 5.21406 6.82884 5.23317 6.97551 5.25673C7.12235 5.28037 7.26911 5.32775 7.41586 5.30419V5.32775C7.31799 5.37504 7.26848 5.41842 7.14617 5.46571C7.07275 5.48926 6.99933 5.51299 6.92599 5.51299C6.85257 5.53655 6.85257 5.60775 6.75471 5.60775C6.70582 5.63131 6.68128 5.63131 6.65684 5.63131C6.65684 5.63131 6.63239 5.63131 6.63239 5.60775C6.65684 5.58411 6.68128 5.53673 6.63239 5.51299C6.60795 5.48944 6.60795 5.48944 6.58342 5.48944C6.55897 5.48944 6.55897 5.48944 6.53453 5.48944C6.48555 5.51299 6.48555 5.53682 6.48555 5.58411C6.48013 5.62233 6.53924 5.73477 6.63711 5.75859C6.77799 5.82819 7.02688 5.80117 7.24324 5.73077C7.49888 5.68793 8.03897 5.47575 8.49497 5.38668C8.49497 5.38668 8.18999 5.57059 8.13435 5.65335C8.13435 5.65122 8.09577 5.72971 8.07844 5.69762C8.00502 5.72117 7.91737 5.71175 7.84395 5.73557C7.52386 5.77477 7.22875 6.01682 6.62688 5.94811C6.42208 5.89575 6.30555 5.75122 6.29346 5.68677ZM5.29133 6.1106H5.26688C5.26688 6.08677 5.29133 6.03966 5.24235 6.01593C5.21791 6.01593 5.21791 6.01593 5.21791 6.01593C5.14457 6.03966 5.19346 6.08704 5.16902 6.1106C5.14457 6.1106 5.14457 6.1106 5.14457 6.1106C5.12004 6.08704 5.14457 6.08704 5.12004 6.08704L5.09559 6.13442C5.12004 6.1818 5.09559 6.22908 5.14457 6.27646C5.16902 6.27646 5.16902 6.27646 5.16902 6.27646H5.19346C5.21791 6.27646 5.21791 6.27646 5.21791 6.27646C5.24235 6.27646 5.26688 6.3002 5.29133 6.27646C5.33826 6.20855 5.34253 6.0882 5.31577 6.08713C5.29133 6.08704 5.29133 6.08704 5.29133 6.1106ZM5.12004 6.37113C5.09559 6.39495 5.09559 6.39495 5.09559 6.41851C5.12004 6.44233 5.14457 6.46588 5.19346 6.48917C5.21791 6.48917 5.26688 6.48917 5.29133 6.46562C5.34022 6.44206 5.31577 6.41824 5.31577 6.39468C5.26688 6.37113 5.19346 6.37113 5.12004 6.37113ZM9.68199 7.19913C9.70644 7.34117 9.67924 7.52615 9.75053 7.657C9.75382 7.7178 9.72599 7.77522 9.62813 7.8226C9.53035 7.8226 9.45177 7.83611 9.40306 7.8834C9.37862 7.90695 9.37862 7.93078 9.35417 7.95433C9.32973 7.93078 9.32973 7.90695 9.32973 7.8834C9.32973 7.85984 9.35417 7.81255 9.32973 7.81255C9.32564 7.80846 9.30226 7.75015 9.31391 7.76162C9.21604 7.78518 9.05604 7.77504 8.98244 7.84598C8.95799 7.86953 8.95799 7.86953 8.93355 7.89335C8.90911 7.89335 8.90911 7.89335 8.90911 7.89335C8.83568 7.84598 8.98244 7.77504 8.90911 7.72775C8.88457 7.70393 8.88457 7.70393 8.88457 7.70393C8.86013 7.70393 8.86013 7.70393 8.86013 7.70393C8.78679 7.72749 8.76226 7.77478 8.71346 7.77478C8.68902 7.75122 8.71346 7.72749 8.71346 7.70393C8.78688 7.633 8.79177 7.63158 8.79177 7.53691C8.81302 7.47335 8.81622 7.44224 8.91408 7.4186C9.01195 7.39504 9.09613 7.42357 9.19373 7.40002C9.28804 7.40091 9.34431 7.3266 9.32813 7.2418C9.30368 7.19442 9.32813 7.17095 9.27924 7.14713C9.23026 7.14713 9.18137 7.14713 9.13239 7.14713C9.00582 7.13744 9.01053 7.20944 8.94324 7.24562L8.90493 7.25095C8.90493 7.20357 8.90599 7.17646 8.78368 7.12935C8.61239 7.08197 8.51453 7.01086 8.49008 6.89246C8.43479 6.73877 8.47168 6.60268 8.39826 6.50802C8.30039 6.53157 8.24359 6.65051 8.14582 6.69797C7.82671 6.84171 8.00955 7.08349 7.83631 7.17771C7.80564 7.19451 7.81524 6.95211 7.77195 6.97709C7.69666 7.02046 7.77657 7.25175 7.73862 7.27495C7.72608 7.29122 7.69213 7.34606 7.68413 7.32313C7.65968 7.25406 7.64724 7.06909 7.60448 7.13353C7.51915 7.21024 7.66279 7.3914 7.57391 7.49931C7.54946 7.52286 7.53302 7.55717 7.50857 7.58082C7.50857 7.48509 7.51062 7.4858 7.45453 7.41015C7.33213 7.52553 7.19755 7.5866 7.17817 7.68126C7.10484 7.72864 7.05684 7.72775 6.95897 7.72775C6.90999 7.77504 6.90706 7.82331 6.83373 7.82331C6.76031 7.82331 6.69213 7.80846 6.64297 7.80846C6.59408 7.80846 6.57995 7.80358 6.55515 7.82713C6.53071 7.85069 6.53071 7.87442 6.50626 7.87442C6.50626 7.87442 6.50626 7.87442 6.48208 7.87442C6.45755 7.85086 6.51551 7.79949 6.46679 7.77593C6.41791 7.75238 6.36866 7.77593 6.34448 7.77593C6.27106 7.79949 6.26191 7.78375 6.23737 7.83113C6.21293 7.83113 6.21293 7.83113 6.21293 7.83113C6.16404 7.76029 6.29151 7.7474 6.24253 7.67646C6.24253 7.67646 6.23755 7.6666 6.21293 7.6666C6.21293 7.6666 6.18439 7.65673 6.15995 7.65673C6.11097 7.68029 6.11097 7.70411 6.06208 7.70411C6.06208 7.68055 6.06208 7.63318 6.06208 7.60962C6.18431 7.53842 6.19764 7.55149 6.19764 7.45673C6.24653 7.40935 6.31995 7.36206 6.39337 7.33824C6.56457 7.33824 6.64199 7.45753 6.81319 7.43397C6.93559 7.41042 6.97551 7.39157 6.97551 7.34429C6.97551 7.32073 7.02555 7.27229 7.02555 7.24837C7.02555 7.22455 7.09177 7.16046 7.06724 7.16046C7.04279 7.16046 6.94288 7.18509 6.89399 7.18509C6.89399 7.16153 6.89399 7.16153 6.89399 7.16153C6.99204 7.11424 6.95613 7.07762 7.00511 7.00669C7.05399 6.86455 7.11817 6.70366 7.38742 6.60917C7.53426 6.58562 7.73497 6.59931 7.85728 6.50455C7.90617 6.45717 7.91648 6.3506 7.89204 6.30322C7.86759 6.27966 7.84315 6.27966 7.81871 6.27966C7.63124 6.26864 7.09364 6.64073 6.65417 6.7818C6.53186 6.82909 6.30137 6.91593 6.32608 7.01069C6.32608 7.03424 6.31986 7.05806 6.36866 7.05806C6.39319 7.05806 6.39319 7.05806 6.41764 7.05806C6.41764 7.10517 6.31977 7.129 6.24635 7.17629C6.14848 7.17629 6.16155 7.13193 6.11248 7.17931C6.03906 7.20286 6.07097 7.20464 6.04635 7.22837C5.97622 7.24357 5.78333 7.10669 5.78199 7.07397C5.86884 6.73842 6.17862 6.67184 5.91648 6.481C5.85657 6.46553 6.01737 6.71335 5.72119 6.93931C5.70768 6.79317 5.73595 6.68615 5.68475 6.72117C5.55417 6.81068 5.74111 6.929 5.66235 7.09486C5.65479 7.11095 5.79035 7.18997 5.84973 7.31077C5.72119 7.35255 5.50511 7.28144 5.48884 7.16989C5.54946 7.00677 5.46635 6.96002 5.41079 6.94446C5.28662 7.00011 5.47 7.13726 5.39479 7.20553C5.38768 7.21211 5.34706 7.27086 5.57577 7.37024C5.52679 7.39389 5.38795 7.39566 5.33871 7.37193C5.32502 7.36962 5.23977 7.35442 5.25435 7.26482C5.26893 7.1746 5.25168 7.13015 5.23844 7.07086C5.22946 7.03122 5.17106 7.0682 5.17266 7.07451C5.18946 7.13984 5.20502 7.23344 5.14724 7.30037C5.10279 7.28509 5.05257 7.2242 5.03799 7.185C5.02724 7.20455 5.04297 7.12757 5.07808 7.06811C5.11879 6.99922 5.11746 6.9658 5.02564 6.94046C5.01808 6.93842 4.97488 7.21309 5.00226 7.27682C4.92893 7.36775 4.89284 7.47611 4.72146 7.52349C4.69817 7.47415 4.78573 7.37566 4.77755 7.33202C4.66404 7.35984 4.67346 7.537 4.46964 7.53006C4.41266 7.5562 4.38377 7.5834 4.34822 7.57735C4.32377 7.57735 4.2788 7.57824 4.2788 7.57824L4.25559 7.55362C4.30448 7.50624 4.30342 7.48357 4.2788 7.46002C4.22991 7.4362 4.20546 7.44855 4.18084 7.44855C4.15631 7.44855 4.13186 7.44855 4.13186 7.47211C4.03382 7.54304 4.15408 7.68846 4.00733 7.7594C3.86057 7.7594 3.934 7.84171 3.83613 7.86544H3.78715C3.83613 7.81815 3.86057 7.7946 3.78715 7.74722C3.76271 7.74722 3.73826 7.74722 3.71382 7.74722C3.64039 7.77078 3.66804 7.80918 3.57017 7.78562C3.49675 7.78562 3.44786 7.80918 3.39888 7.833C3.37444 7.85655 3.37444 7.88046 3.37444 7.88046C3.34999 7.88046 3.35 7.88046 3.35 7.88046C3.32582 7.833 3.39888 7.78571 3.37444 7.73833C3.37311 7.66855 3.31897 7.69842 3.27142 7.72055C3.22253 7.72055 3.22253 7.72055 3.22253 7.72055C3.17355 7.72055 3.14911 7.74411 3.10013 7.76775V7.79157C3.07568 7.79157 3.07568 7.76775 3.07568 7.76775C3.07568 7.67318 3.18795 7.62678 3.13906 7.53202C3.16351 7.48464 3.19711 7.42366 3.24617 7.37629C3.24617 7.329 3.29506 7.28162 3.36839 7.23415C3.41728 7.23415 3.51515 7.2106 3.58857 7.25771C3.63746 7.28126 3.70084 7.2706 3.77417 7.24695C3.99435 7.17584 4.19026 7.05762 4.33684 6.93922C4.26342 6.89184 4.22635 6.84233 4.17755 6.74757C4.25657 6.72224 4.42102 6.73593 4.40555 6.72988C4.37924 6.71993 4.34902 6.66997 4.31906 6.67557C3.98671 6.74091 3.87648 6.59771 3.91328 6.5418C3.94751 6.49042 4.14155 6.54651 4.20795 6.54651C4.23488 6.54651 4.16555 6.50455 4.13346 6.48926C4.12653 6.46028 3.91026 6.51691 3.79702 6.46571C3.77897 6.45735 3.69053 6.36695 3.70173 6.35371C3.73897 6.30917 3.93337 6.31495 4.01284 6.34944C3.99888 6.32144 3.96573 6.30891 3.94306 6.2946C3.88893 6.261 3.69657 6.32028 3.56164 6.27246C3.51275 6.22517 3.52591 6.20037 3.47702 6.12926C3.52591 6.12926 3.52591 6.12926 3.52591 6.12926C3.52591 6.12926 3.55044 6.15282 3.57488 6.15282C3.64831 6.12926 3.64831 6.12926 3.67275 6.10544C3.69719 6.05815 3.67746 6.03157 3.65302 5.98428C3.65302 5.96073 3.56653 5.94811 3.56653 5.94811C3.51764 5.97193 3.52617 5.99522 3.45284 6.01913C3.4284 6.01913 3.38368 6.03166 3.35924 6.00784C3.28582 5.96046 3.28582 5.90188 3.18795 5.87824C3.13906 5.83095 3.13906 5.80739 3.13906 5.76002L3.21239 5.78357C3.26137 5.78357 3.26137 5.76002 3.26137 5.76002C3.26137 5.71264 3.26137 5.69744 3.28582 5.69744L3.33479 5.67388C3.35924 5.67388 3.35924 5.69744 3.38368 5.69744C3.43266 5.69744 3.45711 5.67388 3.45711 5.67388C3.45711 5.62659 3.45711 5.58179 3.43266 5.55833H3.40813C3.40813 5.55833 3.40813 5.55833 3.38368 5.55833C3.35924 5.55833 3.33479 5.58188 3.31026 5.58188C3.26137 5.55833 3.22973 5.53886 3.20528 5.51504C3.10742 5.39664 3.32333 5.32828 3.17657 5.23362C3.15213 5.23362 3.15213 5.23362 3.15213 5.20997C3.15213 5.18642 3.20102 5.18642 3.22546 5.18642C3.27444 5.18642 3.27444 5.23388 3.32333 5.23388H3.34777C3.39675 5.21024 3.37968 5.18251 3.42848 5.15868C3.47737 5.08766 3.47737 5.04011 3.40395 4.99282C3.40395 4.96926 3.37977 4.96926 3.37977 4.96926C3.37977 4.94571 3.40395 4.94571 3.42875 4.94571H3.45319C3.55106 4.96926 3.55106 5.04037 3.59995 5.06393C3.64893 5.06393 3.62582 5.05166 3.67471 5.07522H3.72368C3.74813 5.0281 3.72368 4.98064 3.72368 4.93335C3.74813 4.93335 3.77257 4.95691 3.79702 4.95691C3.84599 5.00428 3.846 5.05166 3.846 5.09904C4.0172 5.26464 3.84599 5.43051 3.79702 5.59611C3.84626 5.80259 4.09213 5.95806 4.31239 6.10446C4.33684 6.10446 4.33684 6.10446 4.33684 6.10446H4.38573C4.41026 5.99717 4.57631 5.86028 4.58528 5.79424C4.53586 5.82615 4.51595 5.82633 4.47711 5.83246C4.45168 5.65451 4.48093 5.65131 4.51453 5.55388C4.56342 5.41184 4.46555 5.21504 4.56857 5.09922C4.64199 5.07566 4.71542 5.12277 4.76431 5.09922C4.86217 5.00446 5.04262 5.03566 5.14048 4.96455C5.21382 4.94099 5.25657 4.94464 5.30519 4.96819C5.37862 5.01548 5.49195 5.03157 5.61426 5.05539C5.68768 5.07895 5.71213 5.12642 5.78555 5.12642H5.88342C5.90786 5.12642 5.90786 5.12642 5.90786 5.12642C5.95675 5.12642 5.95675 5.14997 5.95675 5.17379C5.97879 5.34322 5.88822 5.43833 5.96422 5.61157C5.99355 5.66891 6.01328 5.75477 5.96848 5.88739C5.95186 5.93637 5.84706 5.65353 5.84324 5.73619C5.82395 5.82784 5.95631 6.0114 5.99702 6.02126C6.03693 6.04775 6.14582 6.06073 6.22102 6.0754C6.29444 6.09895 6.45382 6.10339 6.52706 6.12704C6.88146 6.13691 7.13097 6.11193 7.45044 6.03948C7.52377 6.01593 7.59711 5.98926 7.69497 5.96562C8.08413 5.88233 8.27719 5.82295 8.59524 5.89406C8.74199 5.91762 8.96128 5.98917 9.10822 5.94188C9.19711 5.90908 9.29835 5.85495 9.27391 5.80766C9.27391 5.76028 9.21444 5.71726 9.16555 5.69708C9.11702 5.67077 9.08359 5.67957 9.08359 5.67957C9.03471 5.67957 8.98999 5.69975 8.98999 5.72331C8.96555 5.74686 8.97177 5.74731 8.97177 5.77104C8.94733 5.77104 8.94155 5.77406 8.91675 5.77406C8.74324 5.73211 8.85595 5.58891 8.84519 5.57788C8.81435 5.58713 8.77711 5.65495 8.74822 5.67851C8.68182 5.73299 8.66315 5.69397 8.61435 5.65708C8.59399 5.64215 8.71977 5.53033 8.66751 5.54846C8.60866 5.56908 8.61186 5.60677 8.55702 5.64855C8.52546 5.67273 8.49666 5.66313 8.46324 5.67771C8.41995 5.69628 8.37835 5.68242 8.30146 5.70651C8.25293 5.73033 8.46617 5.47326 8.44199 5.49708C8.53346 5.42002 8.62191 5.38099 8.63631 5.37904C8.66537 5.31548 8.66173 5.28055 8.68635 5.23308C8.78039 5.19299 8.78404 5.14891 8.90048 5.14891C8.82706 5.19637 8.84955 5.26899 8.87399 5.34011C9.02084 5.45851 9.38502 5.50197 9.44599 5.68553C9.49533 5.83904 9.44031 5.96028 9.33853 6.06153C9.22084 6.14695 9.05462 6.16028 8.93577 6.1826C8.93577 6.25362 9.03586 6.41771 9.08502 6.465C9.18288 6.51228 9.36831 6.45575 9.44173 6.50313C9.46235 6.52313 9.53986 6.60526 9.52564 6.63806C9.50173 6.69308 9.30022 6.63806 9.35391 6.69753C9.42093 6.77131 9.58884 6.64988 9.73764 6.821C9.79871 6.92446 9.38555 6.76535 9.52031 6.93655C9.67124 6.97851 9.84466 7.0754 9.85542 7.12589C9.85542 7.17637 9.86546 7.18971 9.86546 7.22829H9.81657C9.71728 7.18029 9.72617 7.19913 9.68199 7.19913ZM5.58493 5.44802C5.51151 5.47157 5.38919 5.44802 5.31577 5.47157C5.31577 5.47157 5.31577 5.47157 5.29133 5.47157C5.29133 5.49548 5.29133 5.49548 5.29133 5.51895C5.29133 5.54259 5.31577 5.54259 5.33995 5.54286C5.36448 5.58997 5.31551 5.63753 5.36448 5.66108C5.38893 5.66108 5.41337 5.66108 5.41337 5.66108C5.46235 5.63753 5.46235 5.58997 5.46235 5.56642V5.54286C5.48679 5.54286 5.51124 5.54286 5.53568 5.54286C5.60937 5.51931 5.63382 5.44811 5.63382 5.40073C5.60937 5.40064 5.60937 5.42419 5.58493 5.44802ZM5.34146 5.15522C5.34146 5.20233 5.36591 5.24971 5.41479 5.29726C5.43933 5.29726 5.48822 5.29726 5.48822 5.29726C5.51266 5.29726 5.51266 5.29726 5.51266 5.29726L5.34146 5.15522ZM5.15604 5.15966C5.15604 5.20704 5.18048 5.25433 5.22946 5.30171C5.25391 5.30171 5.30279 5.30171 5.30279 5.30171C5.32733 5.30171 5.32733 5.30171 5.32733 5.30171C5.27826 5.25433 5.25382 5.18322 5.15604 5.15966ZM4.95622 5.16206C4.95622 5.20944 4.98075 5.25673 5.02964 5.30419C5.05408 5.30419 5.10306 5.30419 5.10306 5.30419C5.12751 5.30419 5.12751 5.30419 5.12751 5.30419C5.07862 5.25682 5.05408 5.18562 4.95622 5.16206ZM4.87551 5.40046C4.89995 5.44775 4.89995 5.49513 4.92439 5.54259H5.02226C5.04679 5.54259 5.04679 5.54259 5.04679 5.54259C5.07124 5.56615 5.04679 5.58997 5.04679 5.63726C5.07124 5.63726 5.09568 5.66082 5.12013 5.66082C5.12013 5.66082 5.12013 5.66082 5.12013 5.63726C5.16911 5.61344 5.14466 5.58971 5.12013 5.56615C5.12013 5.54259 5.14466 5.54259 5.14466 5.54259H5.16911C5.19355 5.51895 5.19355 5.49513 5.16911 5.47157H4.94893L4.87551 5.40046ZM4.60608 5.25842C4.65506 5.25842 4.65506 5.28197 4.65506 5.30579C4.67951 5.35317 4.63062 5.37673 4.65506 5.40046C4.70395 5.40046 4.72848 5.35308 4.72848 5.32953C4.75293 5.28215 4.75293 5.23486 4.70395 5.21131C4.66751 5.19353 4.64742 5.19335 4.62119 5.18206C4.60217 5.19486 4.59026 5.22135 4.60608 5.25842ZM4.82475 6.66269C4.79879 6.61264 4.79453 6.517 4.76066 6.52686C4.72173 6.53806 4.70875 6.613 4.72199 6.71611C4.60351 6.72482 4.57826 6.63886 4.55551 6.60055C4.46884 6.45424 4.65782 6.33753 4.51186 6.19495C4.47524 6.34402 4.44742 6.33122 4.43666 6.46722C4.42342 6.6434 4.52128 6.7202 4.54893 6.74775C4.58893 6.79335 4.67488 6.85842 4.71933 6.78073C4.77026 6.93069 4.80724 7.01477 4.85168 7.01326C4.85835 6.86962 4.87053 6.81664 4.82475 6.66269ZM5.73168 5.49513C5.73168 5.49513 5.73168 5.49513 5.70724 5.49513C5.70724 5.56615 5.73168 5.63726 5.68279 5.70819C5.68279 5.77904 5.58493 5.80286 5.48706 5.82642C5.48706 5.84997 5.48706 5.89735 5.46262 5.94482C5.43808 5.96864 5.41364 5.9922 5.36475 5.9922C5.31577 5.9922 5.29133 5.9922 5.26688 5.96864C5.24244 5.92126 5.26688 5.89771 5.31577 5.85024C5.31577 5.82642 5.34022 5.77913 5.31577 5.75557C5.26688 5.73202 5.19346 5.73202 5.14457 5.75557C5.12004 5.75557 5.12004 5.75557 5.12004 5.75557C5.09559 5.80295 5.14457 5.85024 5.19346 5.89771C5.21791 5.92153 5.19346 5.96882 5.14457 5.99237C5.12004 5.99237 5.07115 5.99237 5.04671 5.99237C4.94884 5.94499 4.99773 5.87397 4.94884 5.82668C4.89986 5.82668 4.87542 5.80286 4.82653 5.77931C4.67968 5.70846 4.72866 5.58997 4.72866 5.47157H4.70413C4.65524 5.51895 4.65524 5.54286 4.65524 5.58997C4.67942 5.61353 4.65524 5.66108 4.67942 5.68446C4.70386 5.75557 4.75311 5.82651 4.87542 5.87379C4.92431 5.89735 4.89986 5.94482 4.92431 5.9922C5.14457 6.13424 4.94884 6.34748 5.09559 6.51308C5.12004 6.53682 5.16902 6.56037 5.24235 6.56037C5.34022 6.53682 5.38919 6.48953 5.38919 6.44215C5.36475 6.253 5.41364 6.06331 5.56048 5.89771C5.60937 5.85024 5.70724 5.82651 5.75613 5.75557C5.78066 5.68464 5.82955 5.56615 5.73168 5.49513ZM5.87871 5.30571C5.88066 5.30171 5.93079 5.20357 5.88946 5.21531C5.82075 5.23486 5.75479 5.23762 5.73186 5.28215C5.70742 5.32953 5.73186 5.35975 5.78084 5.40722C5.79399 5.42117 5.80528 5.43077 5.80528 5.43077C5.82973 5.38339 5.78093 5.35308 5.87871 5.30571Z" fill="#017DC3"/>
<path d="M6.29355 8.84047C6.28279 8.68385 6.24688 8.5466 6.49586 8.41514C6.64253 8.36785 6.82893 8.38687 6.9756 8.41043C7.12244 8.43407 7.2692 8.48145 7.41595 8.45789V8.48145C7.31808 8.52883 7.26857 8.57211 7.14626 8.6194C7.07284 8.64296 6.99942 8.66669 6.92608 8.66669C6.85266 8.69025 6.85266 8.76145 6.7548 8.76145C6.70591 8.785 6.68137 8.785 6.65693 8.785C6.65693 8.785 6.63248 8.785 6.63248 8.76145C6.65693 8.7378 6.68137 8.69043 6.63248 8.66669C6.60804 8.64314 6.60804 8.64314 6.58351 8.64314C6.55906 8.64314 6.55906 8.64314 6.53462 8.64314C6.48564 8.66669 6.48564 8.69043 6.48564 8.7378C6.48022 8.77603 6.53933 8.88847 6.6372 8.91229C6.77808 8.98189 7.02697 8.95487 7.24333 8.88447C7.49897 8.84163 8.03906 8.62945 8.49506 8.54038C8.49506 8.54038 8.19008 8.72429 8.13444 8.80705C8.13444 8.80492 8.09586 8.8834 8.07853 8.85132C8.00511 8.87487 7.91746 8.86545 7.84404 8.88927C7.52395 8.92847 7.22884 9.17052 6.62697 9.1018C6.42217 9.04945 6.30564 8.90492 6.29355 8.84047ZM5.29142 9.26429H5.26697C5.26697 9.24047 5.29142 9.19345 5.24244 9.16963C5.218 9.16963 5.218 9.16963 5.218 9.16963C5.14466 9.19345 5.19355 9.24074 5.16911 9.26429C5.14466 9.26429 5.14466 9.26429 5.14466 9.26429C5.12013 9.24074 5.14466 9.24074 5.12013 9.24074L5.09568 9.28812C5.12013 9.33549 5.09568 9.38278 5.14466 9.43016C5.16911 9.43016 5.16911 9.43016 5.16911 9.43016H5.19355C5.21799 9.43016 5.218 9.43016 5.218 9.43016C5.24244 9.43016 5.26697 9.45389 5.29142 9.43016C5.33835 9.36225 5.34262 9.24189 5.31586 9.24083C5.29142 9.24074 5.29142 9.24074 5.29142 9.26429ZM5.12013 9.52483C5.09568 9.54865 5.09568 9.54865 5.09568 9.57221C5.12013 9.59603 5.14466 9.61958 5.19355 9.64287C5.21799 9.64287 5.26697 9.64287 5.29142 9.61932C5.34031 9.59576 5.31586 9.57194 5.31586 9.54838C5.26697 9.52483 5.19355 9.52483 5.12013 9.52483ZM9.68208 10.3528C9.70653 10.4949 9.67933 10.6799 9.75062 10.8107C9.75391 10.8715 9.72608 10.929 9.62822 10.9763C9.53044 10.9763 9.45186 10.9898 9.40315 11.0372C9.37871 11.0607 9.37871 11.0845 9.35426 11.108C9.32973 11.0844 9.32973 11.0607 9.32973 11.0371C9.32973 11.0135 9.35417 10.9662 9.32973 10.9662C9.32564 10.9622 9.30226 10.9038 9.31391 10.9152C9.21604 10.9388 9.05604 10.9287 8.98244 10.9996C8.958 11.0231 8.958 11.0231 8.93355 11.047C8.90911 11.047 8.90911 11.047 8.90911 11.047C8.83568 10.9996 8.98244 10.9287 8.90911 10.8814C8.88457 10.8575 8.88457 10.8575 8.88457 10.8575C8.86013 10.8575 8.86013 10.8575 8.86013 10.8575C8.7868 10.8811 8.76226 10.9284 8.71346 10.9284C8.68902 10.9048 8.71346 10.8811 8.71346 10.8575C8.78688 10.7866 8.79177 10.7852 8.79177 10.6905C8.81302 10.627 8.81622 10.5959 8.91408 10.5723C9.01195 10.5487 9.09613 10.5772 9.19373 10.5536C9.28804 10.5545 9.34431 10.4802 9.32813 10.3954C9.30368 10.3481 9.32813 10.3246 9.27924 10.3007C9.23026 10.3007 9.18137 10.3007 9.1324 10.3007C9.00582 10.2911 9.01053 10.3631 8.94324 10.3992L8.90493 10.4046C8.90493 10.3573 8.906 10.3301 8.78368 10.283C8.6124 10.2356 8.51453 10.1645 8.49008 10.0461C8.4348 9.89238 8.47168 9.75638 8.39826 9.66163C8.3004 9.68518 8.2436 9.80412 8.14582 9.85158C7.82671 9.99532 8.00955 10.2371 7.83631 10.3313C7.80564 10.3482 7.81524 10.1058 7.77195 10.1307C7.69666 10.1741 7.77657 10.4055 7.73862 10.4286C7.72608 10.4448 7.69213 10.4997 7.68413 10.4767C7.65968 10.4078 7.64724 10.2228 7.60448 10.2871C7.51915 10.3639 7.6628 10.545 7.57391 10.6529C7.54946 10.6765 7.53302 10.7108 7.50857 10.7344C7.50857 10.6388 7.51062 10.6394 7.45453 10.5639C7.33213 10.6792 7.19755 10.7403 7.17817 10.835C7.10484 10.8823 7.05684 10.8815 6.95897 10.8815C6.91 10.9288 6.90706 10.977 6.83373 10.977C6.76031 10.977 6.69213 10.9623 6.64297 10.9623C6.59408 10.9623 6.57995 10.9573 6.55515 10.9808C6.53071 11.0044 6.53071 11.0282 6.50626 11.0282C6.50626 11.0282 6.50626 11.0282 6.48208 11.0282C6.45755 11.0047 6.51551 10.9533 6.4668 10.9297C6.41791 10.9062 6.36866 10.9297 6.34448 10.9297C6.27106 10.9533 6.26191 10.9376 6.23737 10.9849C6.21293 10.9849 6.21293 10.9849 6.21293 10.9849C6.16404 10.9141 6.29151 10.9012 6.24253 10.8303C6.24253 10.8303 6.23755 10.8205 6.21293 10.8205C6.21293 10.8205 6.1844 10.8106 6.15995 10.8106C6.11097 10.8342 6.11097 10.858 6.06208 10.858C6.06208 10.8344 6.06208 10.7871 6.06208 10.7635C6.18431 10.6923 6.19764 10.7054 6.19764 10.6106C6.24653 10.5632 6.31995 10.5159 6.39337 10.4921C6.56457 10.4921 6.642 10.6114 6.8132 10.5879C6.9356 10.5644 6.97551 10.5455 6.97551 10.4982C6.97551 10.4746 7.02555 10.4262 7.02555 10.4023C7.02555 10.3784 7.09177 10.3143 7.06724 10.3143C7.0428 10.3143 6.94288 10.339 6.894 10.339C6.894 10.3154 6.894 10.3154 6.894 10.3154C6.99204 10.268 6.95613 10.2315 7.00511 10.1606C7.054 10.0184 7.11817 9.85754 7.38742 9.76305C7.53426 9.73949 7.73497 9.75318 7.85728 9.65843C7.90617 9.61105 7.91648 9.50447 7.89204 9.45709C7.8676 9.43354 7.84315 9.43354 7.81871 9.43354C7.63124 9.42252 7.09364 9.79461 6.65417 9.93567C6.53186 9.98305 6.30137 10.0698 6.32608 10.1646C6.32608 10.1881 6.31986 10.2119 6.36866 10.2119C6.3932 10.2119 6.3932 10.2119 6.41764 10.2119C6.41764 10.2591 6.31977 10.2829 6.24635 10.3302C6.14848 10.3302 6.16155 10.2858 6.11248 10.3332C6.03906 10.3567 6.07097 10.3585 6.04635 10.3823C5.97622 10.3975 5.78333 10.2606 5.782 10.2279C5.86884 9.8923 6.17862 9.82572 5.91648 9.63487C5.85657 9.61941 6.01737 9.86723 5.72119 10.0932C5.70768 9.94705 5.73595 9.84003 5.68475 9.87514C5.55417 9.96465 5.74111 10.0829 5.66235 10.2488C5.6548 10.265 5.79035 10.3439 5.84973 10.4647C5.72119 10.5065 5.50511 10.4353 5.48884 10.3239C5.54946 10.1607 5.46635 10.114 5.41079 10.0984C5.28662 10.1541 5.47 10.2913 5.3948 10.3595C5.38768 10.3661 5.34706 10.4248 5.57577 10.5242C5.5268 10.5479 5.38795 10.5496 5.33871 10.5259C5.32502 10.5236 5.23977 10.5084 5.25435 10.4188C5.26893 10.3286 5.25168 10.2841 5.23844 10.2248C5.22946 10.1852 5.17106 10.2222 5.17266 10.2285C5.18946 10.2938 5.20502 10.3874 5.14724 10.4543C5.10279 10.4391 5.05257 10.3782 5.03799 10.339C5.02724 10.3585 5.04297 10.2815 5.07808 10.2221C5.11879 10.1532 5.11746 10.1198 5.02564 10.0944C5.01808 10.0924 4.97488 10.3671 5.00226 10.4308C4.92893 10.5217 4.89284 10.6302 4.72146 10.6775C4.69817 10.6281 4.78573 10.5296 4.77755 10.486C4.66404 10.5138 4.67346 10.691 4.46964 10.684C4.41266 10.7102 4.38377 10.7374 4.34822 10.7314C4.32377 10.7314 4.2788 10.7323 4.2788 10.7323L4.25559 10.7077C4.30448 10.6603 4.30342 10.6376 4.2788 10.6141C4.22991 10.5903 4.20546 10.6026 4.18084 10.6026C4.15631 10.6026 4.13186 10.6026 4.13186 10.6262C4.03382 10.6971 4.15408 10.8425 4.00733 10.9135C3.86057 10.9135 3.93399 10.9958 3.83613 11.0196H3.78715C3.83613 10.9722 3.86057 10.9487 3.78715 10.9013C3.76271 10.9013 3.73826 10.9013 3.71382 10.9013C3.64039 10.9248 3.66804 10.9632 3.57017 10.9397C3.49675 10.9397 3.44786 10.9632 3.39888 10.9871C3.37444 11.0106 3.37444 11.0345 3.37444 11.0345C3.34999 11.0345 3.34999 11.0345 3.34999 11.0345C3.32582 10.9871 3.39888 10.9398 3.37444 10.8924C3.37311 10.8226 3.31897 10.8525 3.27142 10.8746C3.22253 10.8746 3.22253 10.8746 3.22253 10.8746C3.17355 10.8746 3.14911 10.8982 3.10013 10.9218V10.9456C3.07568 10.9456 3.07568 10.9218 3.07568 10.9218C3.07568 10.8272 3.18795 10.7808 3.13906 10.6861C3.16351 10.6388 3.19711 10.5777 3.24617 10.5303C3.24617 10.4831 3.29506 10.4357 3.36839 10.3882C3.41728 10.3882 3.51515 10.3647 3.58857 10.4118C3.63746 10.4353 3.70084 10.4247 3.77417 10.401C3.99435 10.3299 4.19026 10.2117 4.33684 10.0933C4.26342 10.0459 4.22635 9.99638 4.17755 9.90163C4.25657 9.8763 4.42102 9.88998 4.40555 9.88403C4.37924 9.87407 4.34902 9.82403 4.31906 9.82963C3.98671 9.89496 3.87648 9.75176 3.91328 9.69585C3.94751 9.64447 4.14155 9.70056 4.20795 9.70056C4.23488 9.70056 4.16555 9.65861 4.13346 9.64332C4.12653 9.61434 3.91026 9.67096 3.79702 9.61976C3.77897 9.61141 3.69053 9.52101 3.70173 9.50776C3.73897 9.46314 3.93337 9.46892 4.01284 9.50349C3.99888 9.47549 3.96573 9.46296 3.94306 9.44874C3.88893 9.41505 3.69657 9.47434 3.56164 9.42661C3.51275 9.37923 3.52591 9.35443 3.47702 9.28341C3.52591 9.28341 3.52591 9.28341 3.52591 9.28341C3.52591 9.28341 3.55044 9.30696 3.57488 9.30696C3.64831 9.2834 3.64831 9.28341 3.67275 9.25967C3.6972 9.21229 3.67746 9.1858 3.65302 9.13843C3.65302 9.11487 3.56653 9.10225 3.56653 9.10225C3.51764 9.12607 3.52617 9.14936 3.45284 9.17327C3.4284 9.17327 3.38368 9.1858 3.35924 9.16198C3.28582 9.1146 3.28582 9.05603 3.18795 9.03238C3.13906 8.98509 3.13906 8.96154 3.13906 8.91416L3.21239 8.93772C3.26137 8.93772 3.26137 8.91416 3.26137 8.91416C3.26137 8.86678 3.26137 8.85158 3.28582 8.85158L3.33479 8.82803C3.35924 8.82803 3.35924 8.85158 3.38368 8.85158C3.43266 8.85158 3.45711 8.82803 3.45711 8.82803C3.45711 8.78065 3.45711 8.73594 3.43266 8.71238H3.40813C3.40813 8.71238 3.40813 8.71238 3.38368 8.71238C3.35924 8.71238 3.33479 8.73594 3.31026 8.73594C3.26137 8.71238 3.22973 8.69283 3.20528 8.66909C3.10742 8.55078 3.32333 8.48234 3.17657 8.38767C3.15213 8.38767 3.15213 8.38767 3.15213 8.36403C3.15213 8.34047 3.20102 8.34047 3.22546 8.34047C3.27444 8.34047 3.27444 8.38794 3.32333 8.38794H3.34777C3.39675 8.3642 3.37968 8.33647 3.42848 8.31274C3.47737 8.24171 3.47737 8.19425 3.40395 8.14687C3.40395 8.12331 3.37977 8.12331 3.37977 8.12331C3.37977 8.09976 3.40395 8.09976 3.42875 8.09976H3.45319C3.55106 8.12331 3.55106 8.19442 3.59995 8.21798C3.64893 8.21798 3.62582 8.20571 3.67471 8.22927H3.72368C3.74813 8.18216 3.72368 8.13469 3.72368 8.0874C3.74813 8.0874 3.77257 8.11096 3.79702 8.11096C3.84599 8.15825 3.84599 8.20571 3.84599 8.25309C4.01719 8.41869 3.84599 8.58456 3.79702 8.75016C3.84626 8.95665 4.09213 9.11212 4.31239 9.25852C4.33684 9.25852 4.33684 9.25852 4.33684 9.25852H4.38573C4.41026 9.15123 4.57631 9.01434 4.58528 8.94829C4.53586 8.9802 4.51595 8.98038 4.47711 8.9866C4.45168 8.80865 4.48093 8.80545 4.51453 8.70803C4.56342 8.56598 4.46555 8.36918 4.56857 8.25336C4.642 8.2298 4.71542 8.27691 4.76431 8.25336C4.86217 8.1586 5.04262 8.1898 5.14048 8.11869C5.21382 8.09514 5.25657 8.09878 5.3052 8.12234C5.37862 8.16962 5.49195 8.1858 5.61426 8.20954C5.68768 8.23309 5.71213 8.28056 5.78555 8.28056H5.88342C5.90786 8.28056 5.90786 8.28056 5.90786 8.28056C5.95675 8.28056 5.95675 8.30411 5.95675 8.32785C5.9788 8.49727 5.88822 8.59238 5.96422 8.76563C5.99355 8.82296 6.01328 8.90883 5.96848 9.04154C5.95186 9.09052 5.84706 8.80767 5.84324 8.89025C5.82395 8.98189 5.95631 9.16545 5.99702 9.17532C6.03693 9.2018 6.14582 9.21478 6.22102 9.22945C6.29444 9.253 6.45382 9.25745 6.52706 9.28109C6.88146 9.29096 7.13097 9.26598 7.45044 9.19354C7.52377 9.16998 7.59711 9.14323 7.69497 9.11967C8.08413 9.03638 8.2772 8.977 8.59524 9.04812C8.742 9.07167 8.96128 9.14323 9.10822 9.09594C9.19711 9.06314 9.29835 9.009 9.27391 8.96172C9.27391 8.91434 9.21444 8.87132 9.16555 8.85114C9.11702 8.82483 9.0836 8.83363 9.0836 8.83363C9.03471 8.83363 8.99 8.8538 8.99 8.87736C8.96555 8.90092 8.97177 8.90136 8.97177 8.92518C8.94733 8.92518 8.94155 8.92812 8.91675 8.92812C8.74324 8.88616 8.85595 8.74296 8.8452 8.73194C8.81435 8.74118 8.77711 8.809 8.74822 8.83256C8.68182 8.88705 8.66315 8.84803 8.61435 8.81123C8.594 8.7962 8.71977 8.68438 8.66751 8.7026C8.60866 8.72314 8.61186 8.76091 8.55702 8.8026C8.52546 8.82678 8.49666 8.81718 8.46324 8.83176C8.41995 8.85043 8.37835 8.83647 8.30146 8.86056C8.25293 8.88438 8.46617 8.62731 8.442 8.65114C8.53346 8.57407 8.62191 8.53505 8.63631 8.53309C8.66537 8.46954 8.66173 8.4346 8.68635 8.38714C8.7804 8.34705 8.78404 8.30296 8.90048 8.30296C8.82706 8.35043 8.84955 8.42305 8.874 8.49416C9.02084 8.61256 9.38502 8.65603 9.446 8.83958C9.49533 8.99318 9.44031 9.11434 9.33853 9.21558C9.22084 9.30101 9.05462 9.31434 8.93577 9.33665C8.93577 9.40767 9.03586 9.57176 9.08502 9.61905C9.18288 9.66643 9.36831 9.60981 9.44173 9.65718C9.46235 9.67718 9.53986 9.75932 9.52564 9.79212C9.50173 9.84714 9.30022 9.79212 9.35391 9.85158C9.42093 9.92536 9.58884 9.80385 9.73764 9.97496C9.79871 10.0784 9.38555 9.91932 9.52031 10.0905C9.67124 10.1326 9.84466 10.2295 9.85542 10.2799C9.85542 10.3303 9.86546 10.3437 9.86546 10.3823H9.81657C9.71737 10.334 9.72626 10.3528 9.68208 10.3528ZM5.58502 8.60171C5.5116 8.62527 5.38928 8.60171 5.31586 8.62527C5.31586 8.62527 5.31586 8.62527 5.29142 8.62527C5.29142 8.64918 5.29142 8.64918 5.29142 8.67256C5.29142 8.69629 5.31586 8.69629 5.34004 8.69647C5.36457 8.74358 5.3156 8.79114 5.36457 8.81469C5.38902 8.81469 5.41346 8.81469 5.41346 8.81469C5.46244 8.79114 5.46244 8.74358 5.46244 8.72003V8.69647C5.48688 8.69647 5.51133 8.69647 5.53577 8.69647C5.60946 8.67291 5.63391 8.60171 5.63391 8.55434C5.60946 8.55434 5.60946 8.57789 5.58502 8.60171ZM5.34155 8.30891C5.34155 8.35603 5.366 8.4034 5.41488 8.45096C5.43942 8.45096 5.48831 8.45096 5.48831 8.45096C5.51275 8.45096 5.51275 8.45096 5.51275 8.45096L5.34155 8.30891ZM5.15613 8.31336C5.15613 8.36065 5.18057 8.40803 5.22955 8.4554C5.254 8.4554 5.30288 8.4554 5.30288 8.4554C5.32742 8.4554 5.32742 8.4554 5.32742 8.4554C5.27835 8.40803 5.25391 8.33691 5.15613 8.31336ZM4.95631 8.31576C4.95631 8.36314 4.98084 8.41043 5.02973 8.45789C5.05417 8.45789 5.10315 8.45789 5.10315 8.45789C5.1276 8.45789 5.1276 8.45789 5.1276 8.45789C5.07871 8.41051 5.05417 8.33931 4.95631 8.31576ZM4.87559 8.55416C4.90004 8.60154 4.90004 8.64883 4.92448 8.69629H5.02235C5.04688 8.69629 5.04688 8.69629 5.04688 8.69629C5.07133 8.71985 5.04688 8.74358 5.04688 8.79096C5.07133 8.79096 5.09577 8.81451 5.12022 8.81451C5.12022 8.81451 5.12022 8.81452 5.12022 8.79096C5.1692 8.76714 5.14475 8.7434 5.12022 8.71985C5.12022 8.69629 5.14475 8.69629 5.14475 8.69629H5.1692C5.19364 8.67256 5.19364 8.64883 5.1692 8.62527H4.94902L4.87559 8.55416ZM4.60617 8.41211C4.65515 8.41211 4.65515 8.43567 4.65515 8.4594C4.67959 8.50678 4.63071 8.53034 4.65515 8.55407C4.70404 8.55407 4.72857 8.50669 4.72857 8.48314C4.75302 8.43576 4.75302 8.38847 4.70404 8.36491C4.66759 8.34714 4.64751 8.34696 4.62128 8.33567C4.60226 8.34856 4.59035 8.37505 4.60617 8.41211ZM4.82484 9.81638C4.79888 9.76634 4.79462 9.67069 4.76075 9.68056C4.72182 9.69176 4.70884 9.7667 4.72208 9.86981C4.6036 9.87843 4.57835 9.79256 4.5556 9.75416C4.46893 9.60785 4.65791 9.49114 4.51195 9.34856C4.47533 9.49763 4.44751 9.48483 4.43675 9.62083C4.42351 9.79701 4.52137 9.87381 4.54902 9.90136C4.58902 9.94696 4.67497 10.012 4.71942 9.93434C4.77035 10.0843 4.80733 10.1684 4.85177 10.1669C4.85844 10.0233 4.87062 9.97034 4.82484 9.81638ZM5.73177 8.64883C5.73177 8.64883 5.73177 8.64883 5.70733 8.64883C5.70733 8.71985 5.73177 8.79096 5.68288 8.86189C5.68288 8.93274 5.58502 8.95656 5.48715 8.98012C5.48715 9.00367 5.48715 9.05105 5.46271 9.09852C5.43817 9.12234 5.41373 9.14589 5.36484 9.14589C5.31586 9.14589 5.29142 9.14589 5.26697 9.12234C5.24253 9.07496 5.26697 9.0514 5.31586 9.00394C5.31586 8.98012 5.34031 8.93283 5.31586 8.90927C5.26697 8.88572 5.19355 8.88572 5.14466 8.90927C5.12013 8.90927 5.12013 8.90927 5.12013 8.90927C5.09568 8.95656 5.14466 9.00394 5.19355 9.0514C5.21799 9.07523 5.19355 9.12252 5.14466 9.14607C5.12013 9.14607 5.07124 9.14607 5.0468 9.14607C4.94893 9.09869 4.99782 9.02767 4.94893 8.98038C4.89995 8.98038 4.87551 8.95656 4.82662 8.933C4.67977 8.86216 4.72875 8.74367 4.72875 8.62536H4.70422C4.65533 8.67265 4.65533 8.69656 4.65533 8.74367C4.67951 8.76723 4.65533 8.81478 4.67951 8.83816C4.70395 8.90927 4.75319 8.9802 4.87551 9.02749C4.92439 9.05105 4.89995 9.09852 4.92439 9.14589C5.14466 9.28794 4.94893 9.50118 5.09568 9.66678C5.12013 9.69061 5.16911 9.71407 5.24244 9.71407C5.34031 9.69052 5.38928 9.64323 5.38928 9.59585C5.36484 9.40669 5.41373 9.217 5.56057 9.0514C5.60946 9.00394 5.70733 8.9802 5.75622 8.90927C5.78075 8.83834 5.82964 8.71985 5.73177 8.64883ZM5.8788 8.4594C5.88075 8.4554 5.93088 8.35727 5.88955 8.369C5.82084 8.38856 5.75488 8.39131 5.73195 8.43585C5.70751 8.48323 5.73195 8.51345 5.78093 8.56091C5.79408 8.57487 5.80537 8.58447 5.80537 8.58447C5.82982 8.53718 5.78102 8.50678 5.8788 8.4594Z" fill="#017DC3"/>
<path d="M6.30687 12.0139C6.29612 11.8573 6.26021 11.7199 6.50918 11.5886C6.65594 11.5413 6.84225 11.5603 6.98892 11.5839C7.13576 11.6075 7.28252 11.6549 7.42927 11.6313V11.6549C7.33141 11.7023 7.28189 11.7455 7.15958 11.7928C7.08616 11.8164 7.01274 11.8402 6.93941 11.8402C6.86598 11.8638 6.86598 11.935 6.76812 11.935C6.71923 11.9585 6.69469 11.9585 6.67025 11.9585C6.67025 11.9585 6.64581 11.9585 6.64581 11.935C6.67025 11.9112 6.69469 11.8639 6.64581 11.8402C6.62136 11.8167 6.62136 11.8167 6.59683 11.8167C6.57238 11.8167 6.57238 11.8167 6.54794 11.8167C6.49896 11.8402 6.49896 11.864 6.49896 11.9113C6.49363 11.9495 6.55265 12.062 6.65052 12.0858C6.79141 12.1554 7.04029 12.1284 7.25665 12.058C7.51229 12.0151 8.05238 11.803 8.50838 11.7138C8.50838 11.7138 8.20341 11.8977 8.14776 11.9805C8.14776 11.9783 8.10918 12.0568 8.09185 12.0248C8.01843 12.0484 7.93069 12.039 7.85736 12.0627C7.53718 12.1019 7.24216 12.3439 6.64029 12.2752C6.43549 12.2229 6.31905 12.0783 6.30687 12.0139ZM5.30483 12.4376H5.28038C5.28038 12.4138 5.30483 12.3668 5.25585 12.343C5.23141 12.343 5.23141 12.343 5.23141 12.343C5.15807 12.3668 5.20696 12.4141 5.18252 12.4376C5.15807 12.4376 5.15807 12.4376 5.15807 12.4376C5.13354 12.4141 5.15807 12.4141 5.13354 12.4141L5.10909 12.4614C5.13354 12.5087 5.10909 12.556 5.15807 12.6034C5.18252 12.6034 5.18252 12.6034 5.18252 12.6034H5.20696C5.23141 12.6034 5.23141 12.6034 5.23141 12.6034C5.25585 12.6034 5.28038 12.627 5.30483 12.6034C5.35176 12.5354 5.35603 12.4151 5.32927 12.4141C5.30483 12.4141 5.30483 12.4141 5.30483 12.4376ZM5.13354 12.6982C5.10909 12.7221 5.10909 12.7221 5.10909 12.7455C5.13354 12.7694 5.15807 12.7929 5.20696 12.8162C5.23141 12.8162 5.28038 12.8162 5.30483 12.7926C5.35372 12.7691 5.32927 12.7453 5.32927 12.7218C5.28038 12.6982 5.20696 12.6982 5.13354 12.6982ZM9.69549 13.5262C9.71994 13.6682 9.69274 13.8532 9.76403 13.984C9.76732 14.0449 9.73949 14.1023 9.64163 14.1496C9.54385 14.1496 9.46536 14.1631 9.41656 14.2105C9.39212 14.2341 9.39212 14.2579 9.36767 14.2814C9.34323 14.2578 9.34323 14.2341 9.34323 14.2105C9.34323 14.187 9.36767 14.1396 9.34323 14.1396C9.33923 14.1356 9.31585 14.0773 9.32749 14.0886C9.22963 14.1122 9.06963 14.1022 8.99603 14.173C8.97158 14.1966 8.97158 14.1966 8.94714 14.2204C8.92269 14.2204 8.92269 14.2204 8.92269 14.2204C8.84927 14.173 8.99603 14.1022 8.92269 14.0548C8.89816 14.031 8.89816 14.031 8.89816 14.031C8.87372 14.031 8.87372 14.031 8.87372 14.031C8.80038 14.0545 8.77585 14.1019 8.72696 14.1019C8.70252 14.0783 8.72696 14.0545 8.72696 14.031C8.80038 13.96 8.80527 13.9587 8.80527 13.8639C8.82652 13.8004 8.82972 13.7693 8.92758 13.7457C9.02545 13.7222 9.10963 13.7506 9.20723 13.727C9.30145 13.7279 9.35781 13.6536 9.34154 13.5688C9.31709 13.5215 9.34154 13.498 9.29265 13.4742C9.24367 13.4742 9.19478 13.4742 9.14581 13.4742C9.01923 13.4646 9.02394 13.5366 8.95665 13.5726L8.91825 13.5781C8.91825 13.5307 8.91932 13.5036 8.79709 13.4564C8.62581 13.409 8.52794 13.3379 8.50349 13.2196C8.44829 13.0658 8.48509 12.9298 8.41167 12.8351C8.31381 12.8587 8.25709 12.9776 8.15923 13.0251C7.84012 13.1689 8.02305 13.4106 7.84981 13.5048C7.81914 13.5217 7.82874 13.2793 7.78545 13.3042C7.71016 13.3476 7.79007 13.579 7.75212 13.6021C7.73958 13.6182 7.70572 13.6732 7.69763 13.6502C7.67318 13.5813 7.66083 13.3963 7.61798 13.4606C7.53265 13.5374 7.67629 13.7185 7.58741 13.8265C7.56296 13.8501 7.54652 13.8844 7.52207 13.908C7.52207 13.8124 7.52412 13.813 7.46812 13.7374C7.34572 13.8528 7.21114 13.9139 7.19176 14.0086C7.11843 14.0559 7.07043 14.055 6.97256 14.055C6.92358 14.1024 6.92065 14.1506 6.84732 14.1506C6.77389 14.1506 6.70572 14.1358 6.65656 14.1358C6.60767 14.1358 6.59354 14.1308 6.56883 14.1543C6.54438 14.1779 6.54438 14.2017 6.51994 14.2017C6.51994 14.2017 6.51994 14.2017 6.49576 14.2017C6.47123 14.1782 6.52918 14.1268 6.48038 14.1032C6.43149 14.0797 6.38225 14.1032 6.35807 14.1032C6.28465 14.1268 6.27558 14.1111 6.25096 14.1584C6.22652 14.1584 6.22652 14.1584 6.22652 14.1584C6.17763 14.0876 6.30509 14.0747 6.25612 14.0038C6.25612 14.0038 6.25114 13.994 6.22652 13.994C6.22652 13.994 6.19807 13.9841 6.17363 13.9841C6.12465 14.0077 6.12465 14.0315 6.07576 14.0315C6.07576 14.0079 6.07576 13.9606 6.07576 13.937C6.19807 13.8657 6.21132 13.8788 6.21132 13.7841C6.26021 13.7368 6.33363 13.6894 6.40705 13.6656C6.57825 13.6656 6.65567 13.785 6.82687 13.7614C6.94927 13.7379 6.98918 13.719 6.98918 13.6717C6.98918 13.6481 7.03923 13.5997 7.03923 13.5758C7.03923 13.5519 7.10545 13.4878 7.08101 13.4878C7.05656 13.4878 6.95665 13.5125 6.90776 13.5125C6.90776 13.4889 6.90776 13.4889 6.90776 13.4889C7.00589 13.4415 6.96989 13.405 7.01887 13.3341C7.06776 13.1919 7.13194 13.031 7.40127 12.9366C7.54812 12.913 7.74874 12.9267 7.87105 12.8319C7.91994 12.7846 7.93025 12.678 7.90581 12.6306C7.88136 12.607 7.85692 12.607 7.83247 12.607C7.64501 12.596 7.10749 12.9681 6.66803 13.1092C6.54572 13.1566 6.31523 13.2433 6.33994 13.3382C6.33994 13.3617 6.33372 13.3854 6.38252 13.3854C6.40705 13.3854 6.40705 13.3854 6.43149 13.3854C6.43149 13.4326 6.33363 13.4564 6.26021 13.5038C6.16234 13.5038 6.17532 13.4593 6.12625 13.5067C6.05283 13.5302 6.08474 13.532 6.06021 13.5558C5.99007 13.571 5.79718 13.4341 5.79585 13.4014C5.88261 13.0658 6.19238 12.9992 5.93034 12.8084C5.87034 12.7929 6.03123 13.0407 5.73505 13.2667C5.72163 13.1206 5.74989 13.0135 5.69869 13.0486C5.56803 13.1382 5.75505 13.2564 5.67621 13.4223C5.66865 13.4384 5.80421 13.5174 5.86358 13.6382C5.73505 13.68 5.51896 13.6088 5.50269 13.4974C5.56332 13.3342 5.48029 13.2875 5.42474 13.2719C5.30056 13.3276 5.48394 13.4648 5.40874 13.533C5.40163 13.5396 5.36092 13.5983 5.58972 13.6977C5.54074 13.7214 5.40189 13.7231 5.35265 13.6994C5.33896 13.6971 5.25372 13.6819 5.26829 13.5923C5.28287 13.5021 5.26572 13.4576 5.25238 13.3983C5.24341 13.3587 5.185 13.3958 5.1866 13.402C5.20332 13.4673 5.21896 13.5609 5.16118 13.6278C5.11683 13.6126 5.06652 13.5518 5.05194 13.5125C5.04118 13.5319 5.05692 13.455 5.09203 13.3956C5.13274 13.3266 5.13132 13.2932 5.03958 13.2678C5.03203 13.2658 4.98883 13.5405 5.01621 13.6042C4.94287 13.6951 4.90669 13.8036 4.7354 13.8509C4.71203 13.8015 4.79967 13.703 4.79149 13.6594C4.67798 13.6872 4.68741 13.8643 4.48358 13.8574C4.42661 13.8836 4.39763 13.9109 4.36216 13.9048C4.33772 13.9048 4.29283 13.9057 4.29283 13.9057L4.26963 13.8811C4.31852 13.8337 4.31745 13.811 4.29283 13.7875C4.24394 13.7637 4.21949 13.776 4.19487 13.776C4.17034 13.776 4.14589 13.776 4.14589 13.7996C4.04776 13.8705 4.16812 14.0159 4.02127 14.087C3.87452 14.087 3.94794 14.1693 3.85007 14.193H3.80109C3.85007 14.1456 3.87452 14.1221 3.80109 14.0747C3.77665 14.0747 3.75221 14.0747 3.72776 14.0747C3.65434 14.0982 3.68189 14.1366 3.58403 14.1131C3.5106 14.1131 3.4618 14.1366 3.41274 14.1605C3.38829 14.184 3.38829 14.2079 3.38829 14.2079C3.36385 14.2079 3.36385 14.2079 3.36385 14.2079C3.33967 14.1605 3.41274 14.1132 3.38829 14.0658C3.38696 13.996 3.33283 14.0259 3.28527 14.048C3.23638 14.048 3.23638 14.048 3.23638 14.048C3.18741 14.048 3.16296 14.0716 3.11398 14.0953V14.119C3.08954 14.119 3.08954 14.0953 3.08954 14.0953C3.08954 14.0007 3.20181 13.9542 3.15283 13.8596C3.17727 13.8123 3.21096 13.7512 3.25994 13.7039C3.25994 13.6566 3.30883 13.6093 3.38225 13.5618C3.43114 13.5618 3.529 13.5382 3.60243 13.5854C3.65132 13.6089 3.71461 13.5982 3.78803 13.5746C4.00821 13.5035 4.20412 13.3853 4.35069 13.2669C4.27727 13.2196 4.24021 13.17 4.19132 13.0752C4.27034 13.0499 4.43487 13.0637 4.41941 13.0576C4.39309 13.0477 4.36287 12.9977 4.33292 13.0032C4.00056 13.0686 3.89025 12.9254 3.92714 12.8694C3.96136 12.8181 4.1554 12.8742 4.2218 12.8742C4.24874 12.8742 4.17941 12.8322 4.14732 12.8169C4.14038 12.7879 3.92412 12.8446 3.81087 12.7934C3.79274 12.785 3.70438 12.6946 3.71549 12.6814C3.75274 12.6367 3.94714 12.6425 4.02661 12.6771C4.01274 12.6491 3.97949 12.6366 3.95683 12.6223C3.90269 12.5887 3.71043 12.648 3.5754 12.6002C3.52652 12.5528 3.53967 12.528 3.49078 12.457C3.53967 12.457 3.53967 12.457 3.53967 12.457C3.53967 12.457 3.56421 12.4806 3.58865 12.4806C3.66207 12.457 3.66207 12.457 3.68652 12.4332C3.71096 12.3858 3.69123 12.3593 3.66678 12.3119C3.66678 12.2884 3.58029 12.2758 3.58029 12.2758C3.5314 12.2996 3.53994 12.3229 3.46652 12.3468C3.44207 12.3468 3.39736 12.3593 3.37292 12.3355C3.29949 12.2881 3.29949 12.2295 3.20163 12.206C3.15274 12.1586 3.15274 12.1351 3.15274 12.0877L3.22607 12.1112C3.27505 12.1112 3.27505 12.0877 3.27505 12.0877C3.27505 12.0404 3.27505 12.0251 3.29949 12.0251L3.34847 12.0015C3.37292 12.0015 3.37292 12.0251 3.39736 12.0251C3.44634 12.0251 3.47078 12.0015 3.47078 12.0015C3.47078 11.9542 3.47078 11.9095 3.44634 11.8859H3.42181C3.42181 11.8859 3.42181 11.8859 3.39736 11.8859C3.37292 11.8859 3.34847 11.9095 3.32394 11.9095C3.27505 11.8859 3.2434 11.8663 3.21896 11.8426C3.12109 11.7242 3.337 11.6559 3.19025 11.5612C3.1658 11.5612 3.1658 11.5612 3.1658 11.5375C3.1658 11.5139 3.21469 11.5139 3.23914 11.5139C3.28812 11.5139 3.28812 11.5614 3.337 11.5614H3.36145C3.41043 11.5376 3.39336 11.51 3.44207 11.4862C3.49096 11.4151 3.49096 11.3676 3.41754 11.3202C3.41754 11.2967 3.39336 11.2967 3.39336 11.2967C3.39336 11.2731 3.41754 11.2731 3.44234 11.2731H3.46678C3.56465 11.2967 3.56465 11.3678 3.61354 11.3914C3.66252 11.3914 3.6394 11.3791 3.68829 11.4027H3.73727C3.76172 11.3556 3.73727 11.3081 3.73727 11.2607C3.76172 11.2607 3.78616 11.2843 3.8106 11.2843C3.85958 11.3317 3.85958 11.3791 3.85958 11.4264C4.03069 11.592 3.85958 11.7579 3.8106 11.9235C3.85985 12.13 4.10572 12.2855 4.32598 12.4319C4.35043 12.4319 4.35043 12.4319 4.35043 12.4319H4.39932C4.42385 12.3247 4.58989 12.1878 4.59887 12.1217C4.54945 12.1535 4.52945 12.1538 4.49069 12.1599C4.46527 11.982 4.49452 11.9788 4.52821 11.8814C4.57709 11.7393 4.47923 11.5425 4.58225 11.4267C4.65567 11.4031 4.72909 11.4503 4.77798 11.4267C4.87585 11.3319 5.05629 11.3631 5.15416 11.292C5.22749 11.2685 5.27025 11.272 5.31887 11.2957C5.39229 11.3431 5.50563 11.3591 5.62794 11.3829C5.70136 11.4064 5.72581 11.4539 5.79923 11.4539H5.89709C5.92154 11.4539 5.92154 11.4539 5.92154 11.4539C5.97043 11.4539 5.97043 11.4775 5.97043 11.5013C5.99247 11.6707 5.90181 11.7658 5.97781 11.9391C6.00723 11.9964 6.02696 12.0823 5.98207 12.2149C5.96536 12.2639 5.86065 11.981 5.85683 12.0636C5.83754 12.1552 5.96989 12.3388 6.01052 12.3487C6.05043 12.3751 6.15932 12.3881 6.23452 12.4028C6.30794 12.4263 6.46732 12.4308 6.54056 12.4544C6.89496 12.4643 7.14447 12.4393 7.46394 12.3669C7.53727 12.3433 7.61069 12.3166 7.70856 12.293C8.09772 12.2097 8.29078 12.1503 8.60883 12.2215C8.75558 12.245 8.97487 12.3166 9.12181 12.2693C9.21069 12.2365 9.31194 12.1823 9.28749 12.1351C9.28749 12.0877 9.22803 12.0447 9.17905 12.0245C9.13052 11.9977 9.09709 12.0065 9.09709 12.0065C9.04821 12.0065 9.00349 12.0267 9.00349 12.0503C8.97905 12.0738 8.98527 12.0743 8.98527 12.0981C8.96083 12.0981 8.95505 12.101 8.93025 12.101C8.75683 12.0591 8.86954 11.9158 8.85878 11.9048C8.82803 11.9141 8.79069 11.9819 8.76181 12.0055C8.69532 12.0599 8.67674 12.0209 8.62785 11.9841C8.60758 11.969 8.73327 11.8573 8.68101 11.8755C8.62216 11.896 8.62536 11.9337 8.57052 11.9755C8.53896 11.9997 8.51007 11.9901 8.47665 12.0047C8.43336 12.0232 8.39185 12.0094 8.31496 12.0335C8.26643 12.0572 8.47967 11.8002 8.45541 11.824C8.54696 11.747 8.63532 11.708 8.64972 11.706C8.67878 11.6424 8.67514 11.6075 8.69976 11.56C8.79389 11.5199 8.79754 11.4759 8.91398 11.4759C8.84056 11.5233 8.86305 11.596 8.88749 11.6671C9.03434 11.7855 9.39852 11.829 9.45941 12.0126C9.50874 12.1662 9.45372 12.2873 9.35194 12.3886C9.23425 12.4741 9.06803 12.4873 8.94918 12.5096C8.94918 12.5806 9.04936 12.7447 9.09843 12.792C9.19629 12.8394 9.38172 12.7828 9.45514 12.8302C9.47567 12.8501 9.55318 12.9323 9.53905 12.9651C9.51514 13.0201 9.31363 12.9651 9.36732 13.0246C9.43434 13.0983 9.60234 12.9768 9.75105 13.1479C9.81212 13.2514 9.39896 13.0923 9.53381 13.2636C9.68465 13.3055 9.85816 13.4024 9.86892 13.4529C9.86892 13.5034 9.87896 13.5166 9.87896 13.5552H9.83016C9.73078 13.5073 9.73958 13.5262 9.69549 13.5262ZM5.59843 11.7751C5.52501 11.7986 5.40269 11.7751 5.32927 11.7986C5.32927 11.7986 5.32927 11.7986 5.30483 11.7986C5.30483 11.8225 5.30483 11.8225 5.30483 11.8459C5.30483 11.8696 5.32927 11.8696 5.35354 11.8698C5.37807 11.9169 5.32909 11.9645 5.37807 11.988C5.40252 11.988 5.42696 11.988 5.42696 11.988C5.47594 11.9645 5.47594 11.9169 5.47594 11.8934V11.8698C5.50038 11.8698 5.52483 11.8698 5.54927 11.8698C5.62296 11.8463 5.64741 11.7751 5.64741 11.7277C5.62287 11.7278 5.62287 11.7513 5.59843 11.7751ZM5.35487 11.4823C5.35487 11.5294 5.37932 11.5767 5.42821 11.6243C5.45274 11.6243 5.50163 11.6243 5.50163 11.6243C5.52607 11.6243 5.52607 11.6243 5.52607 11.6243L5.35487 11.4823ZM5.16945 11.4868C5.16945 11.5342 5.19389 11.5815 5.24287 11.6288C5.26732 11.6288 5.31621 11.6288 5.31621 11.6288C5.34074 11.6288 5.34074 11.6288 5.34074 11.6288C5.29176 11.5815 5.26732 11.5103 5.16945 11.4868ZM4.96972 11.4891C4.96972 11.5365 4.99425 11.5838 5.04314 11.6312C5.06758 11.6312 5.11656 11.6312 5.11656 11.6312C5.14101 11.6312 5.14101 11.6312 5.14101 11.6312C5.09212 11.5839 5.06758 11.5127 4.96972 11.4891ZM4.88892 11.7275C4.91336 11.7749 4.91336 11.8222 4.93781 11.8696H5.03567C5.06021 11.8696 5.06021 11.8696 5.06021 11.8696C5.08465 11.8932 5.06021 11.917 5.06021 11.9643C5.08465 11.9643 5.10909 11.9879 5.13354 11.9879C5.13354 11.9879 5.13354 11.9879 5.13354 11.9643C5.18252 11.9405 5.15807 11.9167 5.13354 11.8932C5.13354 11.8696 5.15807 11.8696 5.15807 11.8696H5.18252C5.20696 11.8459 5.20696 11.8222 5.18252 11.7986H4.96234L4.88892 11.7275ZM4.61958 11.5855C4.66856 11.5855 4.66856 11.609 4.66856 11.6328C4.69301 11.6801 4.64412 11.7037 4.66856 11.7275C4.71745 11.7275 4.74198 11.6801 4.74198 11.6566C4.76643 11.6093 4.76643 11.5619 4.71745 11.5383C4.68092 11.5206 4.66092 11.5204 4.63469 11.5091C4.61558 11.5219 4.60367 11.5484 4.61958 11.5855ZM4.83816 12.9897C4.81221 12.9397 4.80794 12.844 4.77407 12.854C4.73514 12.8651 4.72216 12.9401 4.7354 13.0432C4.61692 13.0518 4.59176 12.966 4.56892 12.9276C4.48225 12.7813 4.67123 12.6646 4.52527 12.522C4.48865 12.671 4.46083 12.6582 4.45007 12.7942C4.43683 12.9703 4.53469 13.0471 4.56225 13.0747C4.60225 13.1203 4.68821 13.1854 4.73265 13.1077C4.78367 13.2576 4.82056 13.3417 4.86509 13.3402C4.87185 13.1966 4.88403 13.1437 4.83816 12.9897ZM5.74518 11.8223C5.74518 11.8223 5.74518 11.8223 5.72074 11.8223C5.72074 11.8933 5.74518 11.9644 5.69629 12.0352C5.69629 12.1062 5.59843 12.1299 5.50056 12.1535C5.50056 12.177 5.50056 12.2244 5.47612 12.2719C5.45158 12.2957 5.42714 12.3192 5.37825 12.3192C5.32927 12.3192 5.30483 12.3192 5.28038 12.2957C5.25594 12.2483 5.28038 12.2248 5.32927 12.1773C5.32927 12.1535 5.35372 12.1062 5.32927 12.0826C5.28038 12.0591 5.20696 12.0591 5.15807 12.0826C5.13354 12.0826 5.13354 12.0826 5.13354 12.0826C5.10909 12.1299 5.15807 12.1773 5.20696 12.2247C5.23141 12.2485 5.20696 12.2959 5.15807 12.3194C5.13354 12.3194 5.08465 12.3194 5.06021 12.3194C4.96234 12.272 5.01123 12.201 4.96234 12.1537C4.91336 12.1537 4.88892 12.1299 4.84003 12.1064C4.69318 12.0355 4.74216 11.9171 4.74216 11.7987H4.71763C4.66874 11.846 4.66874 11.8699 4.66874 11.9171C4.69292 11.9407 4.66874 11.9882 4.69292 12.0116C4.71736 12.0827 4.76661 12.1536 4.88883 12.2009C4.93772 12.2245 4.91327 12.2719 4.93772 12.3193C5.15798 12.4614 4.96225 12.6746 5.10901 12.8402C5.13345 12.864 5.18243 12.8876 5.25576 12.8876C5.35363 12.864 5.40261 12.8166 5.40261 12.7693C5.37816 12.5801 5.42705 12.3904 5.57389 12.2248C5.62278 12.1774 5.72056 12.1535 5.76954 12.0827C5.79416 12.0117 5.84296 11.8932 5.74518 11.8223ZM5.8922 11.6328C5.89416 11.6287 5.94421 11.5307 5.90296 11.5423C5.83425 11.5619 5.76829 11.5647 5.74545 11.6092C5.72101 11.6565 5.74545 11.6868 5.79443 11.7343C5.80758 11.7481 5.81887 11.7578 5.81887 11.7578C5.84323 11.7105 5.79434 11.6801 5.8922 11.6328Z" fill="#017DC3"/>
</g>
<defs>
<clipPath id="clip0">
<rect width="31.5556" height="40" fill="white"/>
</clipPath>
</defs>
</svg>
